<?xml version="1.0" standalone="no"?>
<!DOCTYPE svg PUBLIC "-//W3C//DTD SVG 20010904//EN"
 "http://www.w3.org/TR/2001/REC-SVG-20010904/DTD/svg10.dtd">
<svg version="1.0" xmlns="http://www.w3.org/2000/svg"
 width="1024.000000pt" height="1024.000000pt" viewBox="0 0 1024.000000 1024.000000"
 preserveAspectRatio="xMidYMid meet">

<g transform="translate(0.000000,1024.000000) scale(0.100000,-0.100000)"
fill="#000000" stroke="none">
<path d="M4678 9201 c-156 -40 -388 -161 -470 -243 l-20 -20 52 -53 52 -53 61
44 c126 93 253 150 407 185 248 55 551 -20 757 -188 l56 -45 54 54 55 55 -69
57 c-82 68 -271 164 -398 202 -80 24 -110 28 -260 30 -159 3 -177 2 -277 -25z"/>
<path d="M5940 8965 l0 -54 -57 -3 -58 -3 -3 -52 -3 -53 60 0 61 0 0 -60 0
-60 55 0 55 0 0 60 0 60 61 0 60 0 -3 52 -3 52 -59 1 -60 0 3 58 2 57 -55 0
-56 0 0 -55z"/>
<path d="M4825 8974 c-11 -2 -45 -9 -75 -15 -114 -23 -284 -106 -359 -175
l-35 -32 44 -46 45 -46 52 35 c147 99 279 138 448 134 167 -5 294 -45 416
-130 l60 -42 44 43 c25 24 45 48 45 52 0 4 -28 29 -62 54 -76 57 -221 128
-303 149 -58 15 -280 29 -320 19z"/>
<path d="M3860 8909 l0 -41 -37 4 c-40 3 -39 4 -35 -52 2 -16 9 -20 37 -20 33
0 35 -2 35 -35 0 -33 2 -35 35 -35 33 0 35 2 35 35 0 33 2 35 35 35 34 0 35 1
35 40 l0 41 -35 -7 -35 -6 0 41 c0 40 -1 41 -35 41 -34 0 -35 -1 -35 -41z"/>
<path d="M6430 8833 c-54 -20 -66 -78 -25 -118 33 -34 67 -32 100 7 20 23 25
38 20 57 -11 46 -52 70 -95 54z"/>
<path d="M2392 8650 c-141 -15 -261 -99 -323 -225 -45 -93 -51 -174 -47 -612
l4 -388 29 -69 c21 -50 45 -86 89 -131 99 -101 185 -135 343 -135 l102 0 138
-145 c75 -80 140 -145 143 -145 4 0 66 65 139 145 l132 145 155 0 c166 0 225
10 315 55 67 34 145 119 186 202 35 70 36 77 44 230 10 193 10 509 0 658 -6
93 -12 120 -37 175 -45 94 -102 154 -187 194 -40 19 -85 38 -102 42 -41 11
-1031 14 -1123 4z m616 -336 c15 -10 22 -25 22 -49 0 -63 -10 -65 -314 -65
-263 0 -270 1 -293 22 -30 28 -29 62 3 87 26 20 39 21 293 21 225 0 270 -2
289 -16z m260 0 c24 -16 29 -53 12 -85 -12 -21 -59 -26 -91 -9 -40 22 -10 110
39 110 10 0 28 -7 40 -16z m207 -10 c24 -24 15 -66 -17 -84 -25 -13 -31 -13
-55 0 -16 9 -29 26 -31 39 -8 50 66 82 103 45z m-272 -245 c12 -7 25 -17 29
-23 13 -19 9 -59 -9 -78 -15 -17 -41 -18 -399 -18 l-383 0 -20 26 c-12 15 -21
34 -21 44 0 18 24 43 50 53 31 11 731 7 753 -4z m255 -15 c55 -38 -1 -121 -62
-93 -37 17 -46 67 -16 91 27 22 49 23 78 2z m-456 -251 c30 -35 31 -61 3 -89
l-26 -25 -268 3 c-248 3 -271 4 -290 22 -28 25 -27 51 4 81 l24 25 269 0 c244
0 270 -2 284 -17z m232 -15 c20 -29 20 -47 -1 -70 -34 -38 -102 -14 -103 36
-1 52 75 76 104 34z m225 9 c6 -8 8 -17 4 -20 -3 -4 -1 -7 6 -7 7 0 11 -10 9
-22 -2 -14 -10 -23 -20 -23 -9 0 -20 -4 -25 -9 -5 -5 -2 -6 6 -1 10 6 12 4 7
-4 -5 -7 -20 -10 -38 -7 -48 7 -62 42 -32 84 17 25 65 30 83 9z m-449 -264
c24 -30 20 -69 -7 -90 -13 -10 -87 -13 -290 -13 -267 0 -273 0 -293 22 -27 30
-25 62 6 87 26 20 39 21 295 21 l268 0 21 -27z m210 7 c23 -12 34 -55 20 -80
-14 -25 -75 -27 -102 -3 -50 45 19 117 82 83z m238 -10 c16 -18 20 -36 13 -72
0 -4 -10 -12 -21 -18 -24 -13 -63 -4 -54 12 5 7 2 8 -6 3 -15 -9 -30 11 -30
42 0 49 63 71 98 33z"/>
<path d="M4745 8643 c-83 -16 -227 -84 -312 -146 -112 -83 -215 -230 -268
-382 -32 -92 -33 -105 -38 -602 l-4 -323 74 0 73 0 0 -115 0 -115 670 0 670 0
0 115 0 115 65 0 65 0 0 414 c0 393 -1 417 -21 482 -108 350 -430 580 -803
573 -56 -1 -132 -8 -171 -16z m315 -169 c220 -42 402 -197 478 -405 26 -73 27
-77 30 -391 l4 -318 -79 0 -79 0 4 -35 c2 -20 1 -74 -3 -120 l-7 -85 -474 0
-474 0 0 120 0 120 -75 0 -75 0 0 313 c0 340 3 365 58 473 80 158 233 282 399
324 88 22 193 23 293 4z"/>
<path d="M4804 8231 c-117 -33 -201 -105 -261 -221 -26 -51 -28 -63 -28 -175
0 -118 1 -121 37 -195 25 -52 55 -93 93 -129 44 -42 53 -56 45 -66 -7 -8 -33
-55 -60 -104 l-48 -91 62 -34 c33 -18 64 -31 67 -27 4 3 53 90 109 193 56 104
106 190 111 193 11 7 37 -35 132 -210 106 -196 91 -182 163 -149 32 16 61 30
63 31 2 1 -24 50 -58 108 l-60 106 57 57 c99 99 144 212 135 339 -19 276 -284
453 -559 374z m252 -150 c184 -87 217 -300 72 -465 l-34 -39 -53 97 c-57 107
-56 100 -10 203 l28 63 -120 0 c-93 0 -120 -3 -116 -12 3 -7 17 -44 32 -81
l28 -68 -22 -47 c-12 -26 -37 -71 -55 -100 l-33 -54 -47 59 c-57 71 -81 144
-73 220 20 196 224 309 403 224z"/>
<path d="M6995 8632 c-32 -7 -59 -30 -80 -68 -16 -29 -45 -48 -165 -111 -80
-41 -166 -88 -193 -104 -26 -16 -50 -29 -53 -29 -3 0 -16 13 -30 29 -78 93
-264 103 -360 19 -135 -119 -96 -350 70 -413 l46 -18 -2 -230 -3 -230 -43 -15
c-115 -38 -181 -187 -137 -311 22 -63 61 -108 121 -137 123 -60 276 -14 343
103 9 16 12 16 33 4 12 -8 71 -41 130 -73 l107 -60 -6 -63 c-7 -81 15 -141 71
-193 61 -56 119 -76 210 -70 103 7 170 51 217 142 20 38 28 123 14 165 -4 15
5 23 47 44 29 14 90 46 134 71 l82 45 23 -35 c60 -88 186 -126 303 -92 87 26
166 143 166 247 0 79 -78 187 -158 220 l-32 13 0 233 0 233 28 5 c64 13 140
110 157 200 16 82 -52 205 -138 248 -96 49 -229 27 -302 -50 l-36 -38 -141 78
c-77 43 -169 90 -203 105 -54 24 -66 34 -78 65 -19 49 -89 84 -142 71z m-25
-217 c33 -19 84 -19 121 0 33 18 33 17 331 -147 l107 -59 3 -47 3 -47 -72 -43
-73 -42 -35 38 c-73 81 -240 139 -365 127 -84 -9 -201 -59 -256 -111 l-49 -46
-45 27 c-25 14 -57 32 -72 38 -25 10 -28 16 -28 62 0 57 -28 36 235 181 83 45
155 83 160 83 6 0 21 -6 35 -14z m-407 -422 c34 -25 63 -47 64 -48 1 0 -7 -27
-18 -59 -26 -82 -26 -217 1 -288 11 -29 20 -56 20 -59 0 -7 -136 -108 -156
-116 -7 -3 -27 5 -43 16 -17 12 -44 27 -61 32 l-30 11 0 227 0 228 50 23 c27
13 61 36 76 52 15 15 29 28 32 28 2 0 31 -21 65 -47z m1131 -39 l46 -16 0
-221 c0 -122 -4 -227 -8 -232 -4 -6 -25 -16 -48 -23 -22 -6 -49 -21 -59 -32
-24 -26 -30 -26 -76 11 -21 17 -44 27 -49 24 -7 -4 -14 2 -17 14 -6 22 -27 28
-38 11 -3 -5 -10 -10 -15 -10 -14 0 -3 50 21 105 32 70 38 203 14 291 -10 36
-16 66 -14 68 2 2 31 22 63 44 l60 41 37 -30 c21 -16 58 -37 83 -45z m-267
-500 c0 -16 0 -16 -21 -8 -22 8 -20 19 2 21 10 1 19 -5 19 -13z m-3 -34 c21
-16 43 -27 49 -23 6 3 7 2 4 -4 -5 -7 54 -48 70 -48 1 0 -4 -24 -11 -54 l-12
-54 -148 -78 -147 -79 -30 22 c-17 13 -27 28 -25 37 3 9 10 35 16 59 6 24 20
57 30 74 27 44 143 177 155 177 6 0 28 -13 49 -29z m-656 -54 c61 -73 105
-152 116 -211 4 -25 0 -34 -24 -53 l-28 -22 -89 51 c-48 28 -113 64 -144 79
-47 24 -57 34 -63 62 -3 18 -9 45 -12 59 -5 23 -2 27 23 32 15 3 53 21 83 40
30 19 60 35 65 36 6 1 39 -32 73 -73z"/>
<path d="M7430 7510 c0 -5 5 -10 11 -10 5 0 7 5 4 10 -3 6 -8 10 -11 10 -2 0
-4 -4 -4 -10z"/>
<path d="M8148 7775 c-30 -17 -52 -71 -43 -108 18 -71 111 -95 163 -43 40 39
37 98 -6 137 -36 32 -72 36 -114 14z"/>
<path d="M1606 7607 c-35 -35 -42 -72 -22 -114 23 -48 73 -69 121 -49 96 40
76 172 -28 183 -39 5 -49 2 -71 -20z"/>
<path d="M1277 7195 l-27 -26 0 -198 0 -198 26 -27 27 -26 192 0 c184 0 194 1
226 23 l34 23 3 199 2 198 -27 29 -27 28 -200 0 -201 0 -28 -25z m259 -135 l7
-60 48 0 49 0 0 -35 0 -35 -50 0 -50 0 0 -60 0 -60 -36 0 -36 0 4 58 3 57 -57
3 c-49 3 -58 6 -58 22 0 41 11 50 61 50 l49 0 0 60 c0 60 0 60 30 60 28 0 29
-2 36 -60z"/>
<path d="M8210 6900 l0 -240 225 0 225 0 0 240 0 240 -225 0 -225 0 0 -240z
m330 75 l0 -35 -105 0 -105 0 0 35 0 35 105 0 105 0 0 -35z m0 -150 l0 -35
-105 0 -105 0 0 35 0 35 105 0 105 0 0 -35z"/>
<path d="M3787 7083 c-32 -36 -22 -93 19 -111 58 -27 116 48 80 103 -20 30
-75 34 -99 8z"/>
<path d="M2022 6955 c-56 -47 -39 -131 32 -155 61 -20 116 22 118 90 1 40 -36
79 -83 86 -28 5 -41 1 -67 -21z"/>
<path d="M7649 6762 c-57 -51 -36 -140 40 -163 50 -15 89 3 115 52 53 98 -71
186 -155 111z"/>
<path d="M3440 6668 c-75 -29 -158 -114 -185 -188 -20 -54 -20 -81 -20 -1345
l0 -1290 21 -46 c26 -55 86 -124 128 -147 75 -41 93 -42 644 -42 292 0 532 -3
532 -6 0 -20 -208 -795 -215 -803 -3 -3 -51 -7 -105 -9 -90 -4 -102 -7 -125
-30 -32 -32 -33 -82 -2 -116 l22 -25 755 -2 c415 0 774 -1 798 0 83 2 122 85
67 145 -23 25 -29 26 -124 26 l-100 0 -20 68 c-33 113 -165 608 -191 720 l-8
32 527 0 c544 0 562 1 637 42 59 32 122 114 144 187 20 67 20 94 20 1298 0
1265 -1 1307 -40 1383 -28 55 -109 124 -173 149 l-58 21 -1437 -1 c-1437 0
-1437 0 -1492 -21z m2900 -190 c60 -31 82 -64 86 -132 l3 -56 -1494 0 -1495 0
0 54 c0 65 30 108 95 137 38 18 102 19 1400 19 l1361 0 44 -22z m-2515 -473
l0 -100 -55 -3 c-30 -2 -79 -1 -107 3 l-53 6 0 100 0 100 108 -3 107 -3 0
-100z m1750 31 c45 -19 78 -71 70 -111 -3 -16 -19 -42 -35 -57 l-30 -28 -603
-1 c-331 0 -610 -2 -619 -4 -81 -16 -143 -67 -167 -142 -18 -55 -8 -101 34
-150 71 -83 7 -77 932 -83 l821 -5 25 -23 c59 -56 56 -133 -6 -166 -29 -16
-98 -17 -872 -14 l-840 3 -57 23 c-67 27 -157 105 -193 167 -89 150 -67 341
54 477 50 56 146 107 223 118 29 4 318 8 641 9 491 1 593 -1 622 -13z m696
-86 c22 -12 26 -59 7 -78 -8 -8 -61 -12 -173 -12 -173 0 -185 3 -185 50 0 14
5 31 12 38 15 15 310 17 339 2z m-148 -187 l-123 -4 0 -39 c0 -22 -4 -40 -8
-40 -4 0 -7 17 -6 38 l3 37 -7 -35 c-11 -54 -72 -51 -72 4 0 42 15 46 180 44
154 -2 154 -2 33 -5z m160 -64 c-6 -6 -7 3 -4 23 4 28 6 29 9 9 2 -13 0 -27
-5 -32z m-2453 -74 l0 -105 -110 0 -110 0 0 105 0 105 110 0 110 0 0 -105z
m-2 -397 l3 -108 -111 0 -110 0 0 110 0 111 108 -3 107 -3 3 -107z m0 -395
l-3 -108 -107 -3 -108 -3 0 111 0 110 110 0 111 0 -3 -107z m1772 40 c39 -26
49 -45 50 -85 0 -28 -8 -46 -29 -70 l-29 -33 -614 -3 c-420 -2 -627 -6 -657
-14 -97 -25 -157 -132 -130 -231 14 -52 71 -108 126 -125 30 -9 215 -12 712
-12 746 0 724 2 755 -64 23 -48 8 -99 -36 -126 -29 -18 -65 -18 -737 -15 -410
2 -721 7 -743 13 -106 28 -206 110 -255 209 -36 75 -44 204 -18 284 45 135
163 245 300 279 17 5 311 8 655 9 574 1 628 0 650 -16z m-1772 -435 l3 -108
-111 0 -110 0 0 110 0 111 108 -3 107 -3 3 -107z m2421 -24 c40 -8 57 -37 42
-70 -10 -24 -13 -24 -157 -24 -123 0 -150 3 -166 17 -10 9 -18 24 -18 33 0 22
25 44 40 35 5 -3 10 -1 10 4 0 12 195 15 249 5z m21 -205 c0 -5 4 -8 9 -5 5 3
12 -1 15 -10 9 -24 8 -31 -10 -48 -13 -13 -44 -16 -179 -16 -90 0 -170 3 -179
6 -16 6 -21 39 -10 68 5 14 31 16 180 16 116 0 174 -4 174 -11z m-2442 -166
l-3 -108 -107 -3 -108 -3 0 111 0 110 110 0 111 0 -3 -107z m1168 -432 c31
-14 47 -30 63 -65 69 -142 -102 -262 -214 -150 -55 55 -59 124 -9 183 41 49
97 61 160 32z"/>
<path d="M5940 5939 c0 -5 5 -7 10 -4 6 3 10 8 10 11 0 2 -4 4 -10 4 -5 0 -10
-5 -10 -11z"/>
<path d="M5989 4337 c5 -5 19 -7 32 -5 20 3 19 5 -9 9 -20 3 -29 2 -23 -4z"/>
<path d="M6250 4340 c0 -5 5 -10 11 -10 5 0 7 5 4 10 -3 6 -8 10 -11 10 -2 0
-4 -4 -4 -10z"/>
<path d="M5925 4192 c-8 -23 0 -24 18 -4 14 15 15 19 2 19 -8 0 -17 -7 -20
-15z"/>
<path d="M6138 4203 c7 -3 16 -2 19 1 4 3 -2 6 -13 5 -11 0 -14 -3 -6 -6z"/>
<path d="M6198 4185 c4 -25 3 -25 -64 -26 -38 -1 -72 -1 -76 0 -5 0 -8 -3 -8
-9 0 -13 217 -13 225 0 4 6 -1 7 -11 3 -11 -4 -15 -3 -10 5 4 7 -1 10 -14 7
-14 -3 -20 1 -20 15 0 11 9 20 23 23 14 3 9 5 -14 6 -33 1 -36 -1 -31 -24z"/>
<path d="M5940 4149 c0 -3 23 -6 50 -8 28 -1 50 2 50 8 0 5 -22 8 -50 8 -27
-1 -50 -5 -50 -8z"/>
<path d="M1898 6570 c-78 -14 -148 -40 -241 -88 -200 -104 -335 -264 -406
-478 -28 -84 -33 -115 -37 -223 -4 -143 9 -221 58 -336 102 -244 284 -408 538
-486 61 -18 99 -23 200 -23 141 0 209 12 327 59 83 34 237 132 285 182 94 100
176 249 209 383 18 72 21 103 16 215 -6 150 -22 219 -76 326 -85 169 -213 298
-381 383 -58 29 -134 61 -170 70 -76 20 -255 29 -322 16z m33 -124 c-68 -86
-117 -162 -157 -245 -27 -56 -51 -101 -55 -101 -35 0 43 234 111 330 14 20 27
25 64 26 32 1 43 -2 37 -10z m290 -7 c40 -20 150 -287 135 -326 -4 -9 -27 27
-61 94 -51 102 -144 233 -165 233 -6 0 -10 5 -10 11 0 12 72 3 101 -12z m-144
-76 c76 -86 169 -246 178 -308 l7 -40 -114 -91 -114 -91 -112 94 c-62 52 -112
98 -112 104 0 21 61 156 97 215 41 67 112 153 128 154 5 0 24 -17 42 -37z
m-441 -101 l-22 -71 -34 27 -33 28 41 41 c36 36 62 54 69 49 1 -1 -8 -34 -21
-74z m836 26 c48 -40 49 -42 31 -59 -33 -33 -44 -27 -67 39 -13 34 -21 62 -19
62 3 0 28 -19 55 -42z m-893 -303 c-7 -38 -10 -142 -7 -287 3 -126 2 -228 -2
-228 -4 0 -28 -18 -53 -40 -25 -22 -48 -40 -52 -40 -8 0 -52 98 -72 160 -8 25
-17 101 -20 170 -8 167 15 271 84 389 l25 43 54 -53 54 -54 -11 -60z m1034
113 c62 -109 82 -202 81 -378 -1 -96 -5 -127 -27 -191 -14 -42 -35 -92 -47
-112 l-22 -37 -59 52 c-32 29 -59 53 -59 53 0 0 6 36 13 80 13 83 6 372 -11
445 -7 34 -6 37 48 82 30 26 56 48 57 48 0 0 12 -19 26 -42z m-813 -229 c52
-44 103 -85 113 -90 9 -5 17 -14 17 -18 0 -5 -53 -53 -117 -106 l-118 -97 -6
28 c-15 65 -6 364 10 364 3 0 49 -37 101 -81z m579 -137 c1 -200 12 -192 -114
-86 -147 122 -140 115 -119 127 29 16 202 155 210 169 15 25 22 -37 23 -210z
m-229 -147 c40 -33 81 -67 92 -76 19 -15 19 -16 -2 -70 -12 -29 -37 -83 -57
-119 -36 -67 -140 -210 -152 -210 -15 0 -125 163 -166 246 -69 140 -69 139 17
202 40 29 91 68 113 86 46 39 29 45 155 -59z m200 -227 c-17 -72 -68 -205 -97
-250 -13 -22 -31 -38 -42 -38 -10 0 -34 -3 -52 -7 l-34 -6 36 44 c54 67 134
202 159 270 28 75 48 67 30 -13z m-594 0 c43 -93 108 -198 155 -252 l42 -47
-49 2 c-61 4 -84 25 -125 116 -31 69 -69 193 -69 225 0 34 16 18 46 -44z m772
-84 c-3 -10 -120 -116 -124 -111 -1 1 12 44 29 95 l31 92 33 -32 c19 -18 32
-38 31 -44z m-895 -9 c14 -39 28 -79 33 -90 7 -18 6 -19 -12 -5 -10 8 -43 34
-73 59 l-54 45 38 33 c21 18 40 32 41 30 2 -2 14 -34 27 -72z"/>
<path d="M1138 6525 c-76 -42 -58 -153 27 -169 39 -8 71 5 97 38 26 31 22 71
-9 106 -34 36 -78 46 -115 25z"/>
<path d="M2839 6512 c-64 -57 -29 -152 56 -152 94 0 127 123 44 165 -41 22
-65 18 -100 -13z"/>
<path d="M6915 5652 l0 -657 583 0 c507 0 584 -2 592 -15 32 -55 71 -94 116
-116 l51 -25 339 3 c266 2 343 6 359 17 24 16 101 110 111 134 5 15 -5 16
-110 10 -72 -4 -116 -2 -116 4 0 5 13 30 30 56 16 25 36 60 45 78 l16 31 -125
-4 -126 -3 0 573 0 572 -882 0 -883 0 0 -658z m1615 8 l0 -500 -735 0 -735 0
0 500 0 500 735 0 735 0 0 -500z"/>
<path d="M8895 6130 c-22 -25 -22 -76 1 -101 26 -29 78 -25 103 7 26 34 27 68
1 94 -26 26 -81 26 -105 0z"/>
<path d="M910 6060 c-25 -25 -26 -72 -2 -93 42 -39 115 -8 115 48 0 58 -72 86
-113 45z"/>
<path d="M909 5656 c-59 -29 -45 -118 20 -124 60 -6 92 53 56 105 -19 26 -47
34 -76 19z"/>
<path d="M8902 5574 c-30 -21 -30 -76 0 -104 47 -43 113 -10 111 56 -2 60 -59
85 -111 48z"/>
<path d="M1112 5084 c-17 -7 -38 -24 -48 -39 -14 -22 -15 -32 -5 -64 21 -72
116 -91 161 -34 59 75 -20 174 -108 137z"/>
<path d="M2815 5015 c-65 -34 -75 -96 -25 -147 26 -26 36 -30 66 -25 44 7 63
23 81 65 12 28 11 37 -3 67 -10 21 -27 38 -46 44 -39 14 -37 14 -73 -4z"/>
<path d="M2430 4810 c-11 -11 -20 -33 -20 -50 0 -17 9 -39 20 -50 45 -45 120
-11 120 53 0 20 -8 41 -18 50 -25 23 -78 21 -102 -3z"/>
<path d="M1000 4094 l0 -586 468 459 c257 252 526 515 597 585 l130 128 -597
0 -598 0 0 -586z m565 215 c-116 -116 -254 -251 -307 -301 l-98 -90 0 301 0
301 307 0 308 0 -210 -211z"/>
<path d="M1416 4428 c-22 -31 -20 -50 6 -72 17 -15 28 -17 57 -10 31 8 36 14
39 40 2 19 -3 38 -13 48 -24 24 -71 20 -89 -6z"/>
<path d="M1265 4294 c-26 -26 -16 -76 18 -87 56 -18 102 46 61 87 -20 21 -58
20 -79 0z"/>
<path d="M8060 4495 c0 -80 3 -145 8 -145 4 0 40 33 80 73 l72 72 -73 73 c-40
39 -76 72 -80 72 -4 0 -7 -65 -7 -145z"/>
<path d="M8342 4614 c-29 -20 -26 -64 5 -80 12 -6 32 -24 44 -40 12 -16 40
-48 62 -71 22 -22 36 -46 33 -52 -4 -6 -52 -10 -127 -10 -65 0 -124 -3 -129
-6 -6 -4 -19 -24 -30 -46 l-20 -39 255 0 c226 0 255 2 255 16 0 13 -252 294
-299 332 -19 15 -22 15 -49 -4z"/>
<path d="M8582 4618 c-23 -23 -12 -55 36 -104 26 -27 88 -93 138 -148 74 -80
96 -98 119 -98 26 0 55 23 55 45 0 4 -37 48 -82 95 -45 48 -110 117 -145 155
-64 67 -95 81 -121 55z"/>
<path d="M7035 4609 c-121 -27 -189 -171 -132 -278 71 -135 246 -150 350 -30
l42 49 92 0 c86 0 94 -2 108 -23 16 -25 84 -67 108 -67 14 0 248 -238 283
-289 16 -22 13 -25 -107 -149 -118 -121 -127 -128 -179 -139 -41 -9 -62 -20
-81 -42 l-25 -31 -143 0 -142 0 -24 29 c-15 17 -42 33 -67 39 -105 27 -194
-75 -159 -180 33 -100 162 -122 232 -38 l25 30 133 0 132 0 37 -39 c60 -63
131 -67 195 -11 43 37 60 92 46 144 l-10 37 138 140 138 139 138 0 138 0 34
-35 35 -34 0 -205 c0 -196 -1 -205 -20 -211 -92 -29 -147 -168 -106 -266 15
-35 66 -89 101 -107 68 -34 157 -21 221 31 60 50 84 123 68 206 -7 35 -84 126
-114 136 -19 6 -20 17 -20 218 0 200 1 213 20 224 57 36 64 132 14 184 -58 61
-146 60 -198 -2 l-25 -29 -145 0 c-143 0 -145 0 -165 25 -10 14 -74 82 -140
151 -67 69 -121 131 -121 138 0 7 5 17 11 23 17 17 14 99 -5 127 -53 82 -156
89 -230 17 -31 -30 -34 -31 -128 -31 l-96 0 -11 29 c-18 42 -80 98 -130 116
-48 17 -58 17 -116 4z"/>
<path d="M2915 4533 c-62 -15 -932 -440 -954 -467 -26 -32 -3 -36 195 -36 107
0 194 -3 194 -7 0 -5 -115 -120 -255 -257 l-255 -248 0 -114 0 -114 -109 0
c-109 0 -110 0 -130 29 -61 85 -218 88 -290 5 -50 -57 -54 -153 -9 -220 26
-40 107 -84 153 -84 51 0 116 40 159 98 l39 52 153 0 154 0 0 138 0 137 277
278 c153 152 279 277 280 277 2 0 3 -108 3 -239 0 -241 4 -267 35 -241 14 12
182 346 365 728 51 105 93 204 93 219 0 17 -11 36 -27 50 -27 23 -34 25 -71
16z m-110 -208 c34 -33 34 -83 0 -115 -80 -75 -196 37 -119 114 35 35 86 35
119 1z"/>
<path d="M7100 4023 c-33 -22 -40 -33 -40 -64 0 -36 28 -66 67 -74 65 -13 111
77 63 125 -11 11 -24 20 -29 20 -5 0 -15 2 -23 5 -7 3 -24 -2 -38 -12z"/>
<path d="M7473 4030 c-73 -30 -47 -150 33 -150 69 0 102 97 48 139 -29 23 -46
25 -81 11z"/>
<path d="M1609 3829 c-60 -22 -59 -117 1 -137 85 -30 140 92 60 133 -16 8 -30
15 -32 14 -2 0 -15 -5 -29 -10z"/>
<path d="M8735 3685 c-26 -25 -29 -35 -19 -71 6 -22 42 -44 70 -44 22 0 64 46
64 70 0 12 -11 32 -25 45 -31 32 -59 32 -90 0z"/>
<path d="M8034 3658 c-30 -16 -44 -39 -44 -72 0 -37 7 -49 37 -65 45 -23 87
-9 112 36 9 18 8 30 -3 58 -8 19 -16 35 -18 35 -2 0 -17 4 -34 9 -19 5 -38 5
-50 -1z"/>
<path d="M2909 3541 c-58 -58 -23 -141 60 -141 52 0 96 47 87 94 -16 76 -93
101 -147 47z"/>
<path d="M4038 3325 c-54 -30 -57 -113 -6 -149 70 -49 165 18 138 99 -19 59
-76 80 -132 50z"/>
<path d="M2160 3310 c-29 -29 -27 -83 5 -109 48 -37 115 -2 115 60 0 59 -78
91 -120 49z"/>
<path d="M5780 3271 c0 -40 -1 -41 -35 -41 -33 0 -35 -2 -35 -35 0 -33 2 -35
35 -35 33 0 35 -2 35 -35 0 -32 2 -35 30 -35 28 0 30 3 30 35 0 34 1 35 40 35
39 0 40 1 40 34 0 32 -3 35 -32 38 -29 3 -34 7 -38 38 -4 31 -9 35 -37 38 -32
3 -33 2 -33 -37z"/>
<path d="M7927 3233 c-60 -31 -36 -115 36 -121 27 -2 39 2 51 20 45 64 -18
138 -87 101z"/>
<path d="M2318 2968 c-140 -139 -263 -265 -272 -279 -15 -23 -16 -87 -18 -600
-3 -639 -6 -607 67 -687 67 -75 41 -73 846 -70 l714 3 53 24 c61 28 114 84
131 140 8 29 11 247 11 817 l0 778 -26 43 c-15 26 -40 51 -64 63 -38 19 -59
20 -613 20 l-574 0 -255 -252z m1282 -228 l0 -260 -125 0 -124 0 -3 111 -3
111 -160 2 -160 1 -3 148 -3 147 291 0 290 0 0 -260z m-700 -43 c0 -106 -9
-147 -31 -147 -45 0 -131 -44 -179 -90 -74 -72 -94 -123 -94 -247 l-1 -103
-30 -12 c-31 -13 -62 -45 -106 -109 l-27 -39 -15 38 c-42 104 -51 267 -22 377
37 140 150 276 286 343 79 39 195 74 212 65 4 -2 7 -37 7 -76z m580 -465 c0
-96 -29 -215 -69 -286 -111 -193 -356 -298 -597 -256 -78 14 -154 41 -154 55
0 6 30 46 67 88 66 75 68 77 103 70 19 -5 76 -8 125 -8 80 1 96 4 143 30 65
35 106 81 141 155 22 46 26 69 26 142 l0 88 108 0 107 0 0 -78z m-760 -275 c0
-2 -10 -12 -22 -23 l-23 -19 19 23 c18 21 26 27 26 19z m-288 -294 c-6 -3 -10
-9 -6 -14 3 -5 0 -9 -5 -9 -6 0 -11 -5 -11 -11 0 -6 7 -8 16 -5 8 3 13 2 9 -3
-3 -5 7 -19 22 -30 27 -21 26 -21 -22 1 -27 12 -52 24 -54 25 -3 2 8 17 24 33
16 16 31 27 34 24 3 -4 0 -9 -7 -11z"/>
<path d="M3140 2845 l0 -35 115 0 115 0 0 35 0 35 -115 0 -115 0 0 -35z"/>
<path d="M6745 3140 c-105 -27 -296 -108 -311 -131 -3 -5 -71 -9 -152 -9 -161
0 -197 -9 -235 -61 -45 -61 -38 -171 13 -224 l29 -30 -45 -90 c-138 -281 -137
-616 2 -880 142 -271 394 -462 694 -526 124 -26 321 -20 451 14 187 49 311
116 449 244 135 125 232 282 282 458 20 70 23 103 23 260 0 204 -13 268 -86
422 l-39 82 31 46 c26 38 31 55 31 108 1 73 -17 115 -64 149 -30 21 -45 23
-177 26 -143 4 -143 4 -203 39 -75 44 -191 87 -291 107 -106 22 -310 20 -402
-4z m309 -184 c40 -30 49 -66 16 -66 -12 0 -38 9 -60 20 -56 29 -96 26 -131
-9 -17 -17 -29 -40 -29 -55 l0 -26 125 0 c124 0 125 0 121 -22 -3 -13 -5 -26
-5 -30 -1 -5 -67 -8 -147 -8 l-147 0 5 80 c5 87 18 111 73 137 49 22 136 12
179 -21z m-644 -14 c0 -12 -8 -18 -25 -18 -18 0 -22 3 -13 13 5 7 14 10 19 7
5 -3 9 0 9 5 0 6 2 11 5 11 3 0 5 -8 5 -18z m-70 -37 c-9 -10 -9 -15 -1 -15 6
0 11 -8 11 -17 0 -13 -3 -14 -12 -5 -15 15 -31 16 -22 0 4 -7 3 -8 -4 -4 -6 3
-16 -3 -22 -14 -6 -11 -16 -20 -22 -20 -7 0 8 20 32 45 43 44 65 61 40 30z
m47 -31 c-3 -3 -12 -4 -19 -1 -8 3 -5 6 6 6 11 1 17 -2 13 -5z m-108 -56 c-2
-2 -19 -16 -38 -33 -19 -16 -31 -24 -27 -17 4 6 2 12 -3 12 -6 0 -11 -5 -11
-12 0 -6 -3 -8 -7 -5 -11 12 35 52 63 55 15 1 25 1 23 0z m371 -68 c26 -26 25
-46 -5 -75 -29 -30 -70 -33 -85 -6 -36 69 36 135 90 81z m683 -12 l21 -28 -21
-27 c-24 -33 -47 -40 -79 -23 -30 17 -39 56 -19 87 22 33 70 29 98 -9z m-1146
-3 c-8 -9 -14 -10 -19 -2 -9 16 0 27 17 21 11 -5 12 -9 2 -19z m-33 -20 c-4
-8 -11 -15 -16 -15 -6 0 -5 6 2 15 7 8 14 15 16 15 2 0 1 -7 -2 -15z m834
-156 l3 -126 -69 -5 c-110 -8 -183 -56 -225 -148 -28 -60 -30 -189 -4 -241 43
-87 146 -151 243 -153 l54 0 0 -128 0 -128 -40 0 c-40 0 -40 0 -40 39 l0 38
-61 13 c-170 36 -289 146 -334 307 -13 48 -17 87 -13 165 4 92 8 110 39 172
64 129 174 214 307 237 61 11 62 12 62 43 0 41 7 48 45 44 l30 -3 3 -126z
m-518 11 c11 -11 20 -29 20 -40 0 -26 -34 -60 -60 -60 -22 0 -60 37 -60 59 0
21 40 61 62 61 10 0 27 -9 38 -20z m1028 -2 c31 -25 1 -98 -40 -98 -38 0 -58
19 -58 55 0 55 53 78 98 43z m302 -308 c0 -29 -1 -30 -50 -30 l-50 0 0 -65 0
-65 56 0 c54 0 55 0 52 -27 l-3 -28 -144 -3 c-128 -2 -143 -1 -137 14 3 8 6
22 6 30 0 10 14 14 50 14 l50 0 0 65 0 65 -49 0 c-47 0 -49 1 -53 30 l-5 30
139 0 138 0 0 -30z m-1480 5 c55 -28 76 -105 45 -165 -25 -48 -61 -60 -180
-60 l-105 0 0 120 0 120 105 0 c75 0 115 -4 135 -15z m165 -469 c8 -22 5 -31
-17 -52 -30 -30 -59 -26 -84 10 -30 47 25 111 71 81 11 -7 24 -24 30 -39z
m1007 27 c24 -21 23 -58 -2 -83 -26 -26 -46 -25 -75 5 -29 28 -30 37 -9 70 19
29 59 33 86 8z m-842 -178 c20 -21 22 -30 14 -52 -13 -38 -54 -52 -88 -29 -32
20 -33 52 -4 83 28 30 49 29 78 -2z m670 5 c11 -11 20 -30 20 -42 0 -53 -74
-79 -104 -36 -21 29 -20 40 5 72 24 31 52 33 79 6z m-220 -120 l0 -30 -102 0
c-57 0 -113 -3 -125 -6 -31 -8 -30 -48 2 -79 30 -31 77 -33 123 -5 18 11 48
20 68 20 31 0 34 -2 25 -19 -20 -36 -101 -81 -148 -81 -104 0 -143 42 -143
155 l0 75 150 0 150 0 0 -30z"/>
<path d="M6227 2803 c-4 -3 -7 -11 -7 -17 0 -6 5 -5 12 2 6 6 9 14 7 17 -3 3
-9 2 -12 -2z"/>
<path d="M6140 2160 l0 -60 79 0 c88 0 104 10 104 62 0 45 -24 58 -110 58
l-73 0 0 -60z"/>
<path d="M1558 2698 l-3 -63 -62 -3 -63 -3 0 -54 0 -55 60 0 60 0 0 -60 0 -60
55 0 55 0 0 60 0 60 60 0 60 0 0 55 0 55 -60 0 -60 0 0 65 0 65 -50 0 -49 0
-3 -62z"/>
<path d="M8250 2711 l0 -50 -52 -3 -53 -3 -3 -42 -3 -43 55 0 55 0 3 -51 3
-52 43 -1 42 -1 0 48 0 47 55 0 55 0 0 50 0 50 -52 0 -53 0 3 50 4 50 -51 0
-51 0 0 -49z"/>
<path d="M4414 2319 c-3 -6 -3 -54 0 -105 6 -74 4 -95 -6 -98 -7 -3 -47 -7
-89 -9 -92 -6 -119 -18 -119 -54 0 -31 25 -52 61 -53 l26 0 7 -216 c3 -118 4
-220 1 -225 -4 -5 -19 -9 -34 -9 -31 0 -81 -34 -81 -54 0 -23 36 -46 73 -46
l37 0 2 -205 c1 -113 2 -220 2 -237 1 -33 1 -33 61 -38 l60 -5 3 -103 3 -102
522 2 522 3 3 103 3 102 54 0 55 0 0 563 c0 551 -1 562 -19 538 -10 -14 -17
-32 -14 -40 4 -12 3 -13 -4 -3 -7 10 -13 8 -27 -7 -10 -11 -15 -25 -11 -31 3
-6 1 -9 -7 -8 -10 2 -14 -38 -18 -192 -5 -162 -6 -132 -8 173 l-2 367 -524 0
c-375 0 -527 -3 -532 -11z m914 -691 l-3 -543 -385 0 -385 0 -3 370 c-2 204 0
448 3 543 l7 172 384 0 384 0 -2 -542z m-1131 -140 c-3 -8 -6 -5 -6 6 -1 11 2
17 5 13 3 -3 4 -12 1 -19z m1280 -465 c-2 -16 -4 -3 -4 27 0 30 2 43 4 28 2
-16 2 -40 0 -55z m-499 -49 c44 -31 19 -114 -35 -114 -26 0 -73 41 -73 63 0
24 40 67 64 67 12 0 32 -7 44 -16z"/>
<path d="M1736 2149 c-47 -37 -31 -105 31 -123 23 -7 71 27 74 54 4 42 -3 60
-31 75 -38 19 -42 19 -74 -6z"/>
<path d="M5812 1580 c-31 -29 -29 -73 4 -99 15 -12 35 -21 45 -21 54 0 81 93
37 124 -30 22 -60 20 -86 -4z"/>
<path d="M5990 1175 l0 -55 -61 0 -61 0 6 -31 c3 -17 6 -38 6 -45 0 -10 15
-14 55 -14 l55 0 0 -55 0 -55 48 0 47 0 -1 48 c-2 52 7 59 79 61 l37 1 0 48 0
49 -55 -5 -55 -4 0 56 0 56 -50 0 -50 0 0 -55z"/>
<path d="M3363 1108 c-48 -23 -46 -100 2 -118 37 -14 43 -13 70 15 29 28 32
55 8 83 -23 26 -52 33 -80 20z"/>
<path d="M3857 1078 c-9 -7 -21 -26 -27 -42 -16 -44 13 -80 67 -84 34 -3 44 1
62 24 27 35 27 65 -2 92 -26 24 -74 29 -100 10z"/>
</g>
</svg>
